<svg width="977" height="433" viewBox="0 0 977 433" fill="none" xmlns="http://www.w3.org/2000/svg">
<g clip-path="url(#clip0_636_7503)">
<g opacity="0.5">
<g opacity="0.05">
<path d="M830.2 7.17065C809.653 7.17065 792.449 26.1791 788.009 51.6794C784.686 50.5943 781.213 50.0147 777.638 50.0147C753.721 50.0147 734.333 75.7682 734.333 107.537C734.333 139.305 753.721 165.059 777.638 165.059C798.185 165.059 815.389 146.05 819.829 120.55C823.152 121.635 826.625 122.215 830.2 122.215C854.117 122.215 873.505 96.4613 873.505 64.6927C873.505 32.9242 854.117 7.17065 830.2 7.17065Z" fill="white"/>
<path d="M973.403 0.0300293C953.717 0.0300293 936.431 13.6711 926.605 34.2236C925.783 34.1755 924.957 34.1466 924.126 34.1466C893.529 34.1466 868.726 67.0933 868.726 107.735C868.726 148.377 893.529 181.324 924.126 181.324C943.812 181.324 961.098 167.683 970.924 147.13C971.746 147.178 972.572 147.207 973.403 147.207C1004 147.207 1028.8 114.26 1028.8 73.6186C1028.8 32.9768 1004 0.0300293 973.403 0.0300293Z" fill="white"/>
</g>
<path d="M740.873 257.623V228.928C740.873 228.928 576.283 189.655 562.545 185.688C548.807 181.72 423.374 160.298 412.623 158.712C401.871 157.125 299.136 117.851 299.136 117.851L264.194 99.6027L245.976 95.239C245.976 95.239 223.876 95.239 222.681 91.2719C221.486 87.3049 201.477 78.5774 201.477 78.5774L179.078 74.2137C179.078 74.2137 153.693 69.8499 147.421 65.8829C141.15 61.9158 132.489 57.1554 132.489 57.1554L117.556 43.2708H104.714C104.714 43.2708 73.9531 86.9082 69.772 89.6851C65.5909 92.4621 56.0341 98.0159 49.4638 99.6027C42.8935 101.19 32.7394 116.661 32.7394 116.661L4.06892 126.182L0.211914 257.623H740.873Z" fill="#102179"/>
<path d="M1116.01 296.5V127.372C1116.01 127.372 1064.04 107.537 1056.58 106.743C1049.11 105.95 1015.07 90.4785 1007.3 87.7016C999.535 84.9247 963.1 56.7587 954.638 49.618C946.176 42.4773 948.167 49.618 948.167 49.618C948.167 49.618 920.692 34.1466 911.135 27.0059C901.578 19.8652 911.135 27.0059 904.863 24.229C898.591 21.452 894.112 22.6421 894.112 22.6421L883.493 11.5344H868.726L862.156 22.6421C862.156 22.6421 846.328 41.2872 842.08 49.618C837.833 57.9488 833.585 49.618 833.585 49.618C833.585 49.618 821.838 59.5356 817.657 59.5356C813.476 59.5356 809.295 63.8994 802.725 67.8664C796.154 71.8334 795.258 75.0071 788.987 83.4701C782.715 91.9331 778.235 81.7511 776.145 83.4701C774.054 85.1891 765.626 94.8423 765.626 94.8423C765.626 94.8423 737.022 110.314 732.84 110.314C728.659 110.314 719.7 119.835 715.652 119.214C711.604 118.594 695.509 130.149 692.224 131.339C688.939 132.529 668.929 141.257 668.929 141.257C668.929 141.257 645.634 153.951 636.078 158.315C626.521 162.679 542.6 201.952 542.6 201.952V296.5H1116.01Z" fill="#0C194E"/>
<path d="M938.119 296.578V183.334L909.534 176.548H871.528L817.28 171.238L780.249 154.927L752.638 151.134L729.25 145.444L698.715 149.761L672.801 132.168L636.022 111.729L570.08 105.236L487.897 72.6146L475.228 59.3384L444.044 37.8369H424.229L407.987 68.695L387.523 76.7872L368.033 93.0979L347.243 66.4518L319.307 60.2942L203.991 116.799L139.348 117.524L50.9931 172.943L-141.31 223.963L-138.207 296.578H938.119Z" fill="#0C1F6B"/>
<path d="M1025.49 280.235L1006.7 128.562L974.747 110.313L959.516 118.997L953.543 127.372C953.543 127.372 943.09 132.926 938.61 135.703C934.131 138.479 934.429 141.256 934.429 141.256H920.691L915.316 149.984L905.759 161.092C905.759 161.092 887.84 171.803 887.84 171.919C887.84 172.036 873.936 175.979 873.936 175.979L865.441 190.844L850.509 196.398L833.486 199.175C833.486 199.175 823.033 204.729 814.969 206.228C806.906 207.726 814.969 214.052 814.969 214.052H796.42C796.42 214.052 792.272 215.043 788.987 214.052C785.701 213.06 774.054 221.787 769.873 229.523C765.692 237.259 759.254 229.523 759.254 229.523L738.017 214.052L717.908 206.316L699.69 207.506L657.282 197.588L651.01 194.811L631.896 188.067L610.692 182.117L599.941 184.894L581.517 174.275H538.386L522.59 159.505L502.73 151.218L487.35 144.033L472.417 138.479L466.145 130.149C466.145 130.149 459.874 123.008 458.745 120.231C457.617 117.454 444.941 120.231 444.941 120.231L430.009 128.562L408.805 138.479L382.291 154.039H355.628L305.435 173.786H296.28L283.67 186.481L252.61 201.952L237.976 206.316C237.976 206.316 195.269 230.515 191.155 229.523C187.04 228.531 183.722 229.523 183.722 229.523H140.185L133.814 219.074C133.814 219.074 120.009 214.25 120.009 214.052H72.2254L43.5549 221.787L24.1426 224.096L-62.7646 221.787V280.235H1025.49Z" fill="#07185A"/>
<path d="M694.487 280.235L688.912 279.771C688.912 279.771 632.494 278.119 624.132 270.979C615.769 263.838 555.591 261.105 555.591 261.105C555.591 261.105 526.473 255.507 521.164 252.73C515.854 249.953 480.813 252.73 480.813 252.73L452.109 238.449L418.046 228.73L374.758 207.506L366.098 200.365L346.088 187.671L321.532 174.381L300.395 153.951L283.305 150.182H272.686L249.325 134.116L243.95 129.752L231.585 120.098L217.515 124.545L206.851 110.313H201.541L183.682 135.238L160.128 161.687L138.825 180.53C138.825 180.53 105.973 210.283 101.792 213.06C97.6108 215.837 83.5742 217.424 77.0039 219.804C70.4336 222.184 58.1889 232.895 54.9038 235.672C51.6186 238.449 41.1659 242.813 37.8807 244.003C34.5956 245.193 -21.5507 252.73 -21.5507 252.73L-26.8472 280.235H694.487Z" fill="#00104F"/>
<path d="M1042.3 233.062C1031.55 226.547 1000.8 227.995 972.144 221.48C943.484 214.966 918.108 204.832 918.108 204.832L890.642 195.784L861.849 184.384L850.173 176.24C850.173 176.24 838.696 172.621 835.312 176.24C831.929 179.86 817.267 176.24 817.267 176.24C817.267 176.24 808.841 174.069 805.591 176.24C802.34 178.412 790.63 170.088 790.63 170.088L756.895 167.554L731.287 176.24C731.287 176.24 714.204 181.307 708.996 184.384C703.788 187.46 684.648 194.698 678.08 194.698C671.512 194.698 661.362 203.746 655.988 206.28C650.614 208.813 609.117 224.376 609.117 224.376C609.117 224.376 583.741 241.024 580.556 241.024C577.372 241.024 516.867 250.072 499.85 250.072C482.834 250.072 446.71 259.12 446.71 259.12H1091.13C1091.13 259.12 1053.05 239.576 1042.3 233.062Z" fill="#00104F"/>
</g>
<path d="M36.2371 153.793H976.501V387.07C545.01 476.039 402.849 205.075 36.2371 387.07C-330.375 569.064 36.2371 153.793 36.2371 153.793Z" fill="url(#paint0_linear_636_7503)"/>
</g>
<defs>
<linearGradient id="paint0_linear_636_7503" x1="483.947" y1="158.325" x2="483.947" y2="391.602" gradientUnits="userSpaceOnUse">
<stop stop-color="#051E78" stop-opacity="0"/>
<stop offset="0.421875" stop-color="#021C76" stop-opacity="0.932292"/>
<stop offset="1" stop-color="#021C76"/>
</linearGradient>
<clipPath id="clip0_636_7503">
<rect width="977" height="433" fill="white"/>
</clipPath>
</defs>
</svg>
