<svg width="90" height="90" viewBox="0 0 90 90" fill="none" xmlns="http://www.w3.org/2000/svg">
<rect width="90" height="90" rx="20" fill="#FECC00"/>
<path d="M56.0212 32.0697C56.0212 37.3798 51.7196 41.6844 46.4133 41.6844C41.107 41.6844 36.8054 37.3798 36.8054 32.0697C36.8054 26.7597 41.107 22.455 46.4133 22.455C51.7196 22.455 56.0212 26.7597 56.0212 32.0697ZM55.926 42.1819C58.6135 39.6492 60.2914 36.0555 60.2914 32.0697C60.2914 24.3997 54.078 18.1818 46.4133 18.1818C40.3871 18.1818 35.258 22.0255 33.3405 27.3966C31.441 25.6547 28.9095 24.5916 26.13 24.5916C20.2341 24.5916 15.4546 29.3746 15.4546 35.2746C15.4546 39.0376 17.3987 42.3462 20.3367 44.2493C19.0722 45.6407 18.3013 47.4896 18.3013 49.5186V64.4748C18.3013 68.8015 21.8063 72.309 26.13 72.309H53.1744C57.0801 72.309 60.3177 69.447 60.9072 65.7043L70.87 72.0011C72.7656 73.1992 75.237 71.8361 75.237 69.5925V40.9573C75.237 38.6208 72.5811 37.2779 70.7015 38.6638L60.3221 46.3172C59.4709 44.4167 57.8849 42.9178 55.926 42.1819ZM36.3988 41.6844C36.052 41.3227 35.7245 40.9423 35.4181 40.5448C35.193 40.9412 34.9433 41.3218 34.6711 41.6844H36.3988ZM26.13 41.6844C22.5925 41.6844 19.7247 38.8147 19.7247 35.2746C19.7247 31.7346 22.5925 28.8648 26.13 28.8648C29.6675 28.8648 32.5353 31.7346 32.5353 35.2746C32.5353 38.8147 29.6675 41.6844 26.13 41.6844ZM22.5715 49.5186C22.5715 47.5519 24.1647 45.9576 26.13 45.9576H53.1744C55.1402 45.9576 56.7329 47.5514 56.7329 49.5176V64.4748C56.7329 66.4415 55.1397 68.0358 53.1744 68.0358H26.13C24.1647 68.0358 22.5715 66.4415 22.5715 64.4748V49.5186ZM61.0031 51.1231L70.9668 43.7761V67.0081L61.0031 60.7108V51.1231Z" fill="#24489C"/>
<path d="M40.0789 51.5197C39.9952 51.35 39.8223 51.2426 39.6331 51.2426C39.4439 51.2426 39.2711 51.35 39.1873 51.5197L37.8419 54.2457L34.8336 54.6828C34.6463 54.7101 34.4908 54.8412 34.4323 55.0212C34.3738 55.2012 34.4226 55.3987 34.5581 55.5308L36.7349 57.6527L36.221 60.6489C36.1891 60.8354 36.2657 61.0239 36.4188 61.1351C36.5719 61.2464 36.7749 61.261 36.9424 61.173L39.6331 59.7584L42.3239 61.173C42.4914 61.261 42.6943 61.2464 42.8474 61.1351C43.0005 61.0239 43.0772 60.8354 43.0452 60.6489L42.5313 57.6527L44.7082 55.5308C44.8437 55.3987 44.8924 55.2012 44.834 55.0212C44.7755 54.8412 44.6199 54.7101 44.4326 54.6828L41.4243 54.2457L40.0789 51.5197Z" fill="#24489C"/>
</svg>
