<svg width="20" height="20" viewBox="0 0 20 20" fill="none" xmlns="http://www.w3.org/2000/svg">
<mask id="mask0_8453_37859" style="mask-type:alpha" maskUnits="userSpaceOnUse" x="3" y="1" width="14" height="18">
<path fill-rule="evenodd" clip-rule="evenodd" d="M12.409 2.38795C11.9525 1.9314 11.337 1.66865 10.6913 1.66713C10.4729 1.66663 10.2428 1.66663 10 1.66663C7.66649 1.66663 6.49972 1.66663 5.60842 2.12077C4.82441 2.52023 4.18698 3.15766 3.78752 3.94167C3.33337 4.83297 3.33337 5.99974 3.33337 8.33329V11.6666C3.33337 14.0002 3.33337 15.167 3.78752 16.0583C4.18698 16.8423 4.82441 17.4797 5.60842 17.8791C6.49972 18.3333 7.66649 18.3333 10 18.3333C12.3336 18.3333 13.5004 18.3333 14.3916 17.8791C15.1757 17.4797 15.8131 16.8423 16.2125 16.0583C16.6667 15.167 16.6667 14.0002 16.6667 11.6666V8.33329C16.6667 8.09058 16.6667 7.86049 16.6662 7.64203C16.6647 6.99637 16.402 6.38089 15.9454 5.92435L12.409 2.38795Z" fill="white"/>
</mask>
<g mask="url(#mask0_8453_37859)">
<path d="M5.60842 2.12077L6.1759 3.23453L5.60842 2.12077ZM3.78752 3.94167L4.90128 4.50915L3.78752 3.94167ZM3.78752 16.0583L2.67376 16.6257L3.78752 16.0583ZM5.60842 17.8791L6.1759 16.7654L5.60842 17.8791ZM14.3916 17.8791L13.8242 16.7654L14.3916 17.8791ZM16.2125 16.0583L15.0988 15.4908L16.2125 16.0583ZM15.9454 5.92435L15.0615 6.80824L15.9454 5.92435ZM10 2.91663C10.243 2.91663 10.4716 2.91663 10.6884 2.91714L10.6942 0.417141C10.474 0.416626 10.2425 0.416627 10 0.416627V2.91663ZM6.1759 3.23453C6.41597 3.1122 6.74767 3.01969 7.36517 2.96924C7.99727 2.9176 8.81262 2.91663 10 2.91663V0.416627C8.85388 0.416627 7.9191 0.415654 7.16159 0.477546C6.38949 0.540629 5.69216 0.675188 5.04093 1.00701L6.1759 3.23453ZM4.90128 4.50915C5.1809 3.96035 5.6271 3.51415 6.1759 3.23453L5.04093 1.00701C4.02172 1.52632 3.19307 2.35497 2.67376 3.37418L4.90128 4.50915ZM4.58338 8.33329C4.58338 7.14589 4.58435 6.33052 4.63599 5.69843C4.68644 5.08093 4.77895 4.74922 4.90128 4.50915L2.67376 3.37418C2.34193 4.02541 2.20738 4.72274 2.14429 5.49484C2.0824 6.25235 2.08337 7.18714 2.08337 8.33329H4.58338ZM4.58338 11.6666V8.33329H2.08337V11.6666H4.58338ZM4.90128 15.4908C4.77895 15.2507 4.68644 14.919 4.63599 14.3015C4.58435 13.6694 4.58338 12.854 4.58338 11.6666H2.08337C2.08337 12.8128 2.0824 13.7475 2.14429 14.505C2.20738 15.2772 2.34193 15.9745 2.67376 16.6257L4.90128 15.4908ZM6.1759 16.7654C5.6271 16.4858 5.1809 16.0395 4.90128 15.4908L2.67376 16.6257C3.19307 17.645 4.02172 18.4736 5.04093 18.9929L6.1759 16.7654ZM10 17.0833C8.81262 17.0833 7.99727 17.0823 7.36517 17.0307C6.74767 16.9802 6.41597 16.8877 6.1759 16.7654L5.04093 18.9929C5.69216 19.3247 6.38949 19.4593 7.16159 19.5224C7.9191 19.5843 8.85388 19.5833 10 19.5833V17.0833ZM13.8242 16.7654C13.5841 16.8877 13.2524 16.9802 12.6349 17.0307C12.0028 17.0823 11.1875 17.0833 10 17.0833V19.5833C11.1462 19.5833 12.081 19.5843 12.8385 19.5224C13.6106 19.4593 14.308 19.3247 14.9591 18.9929L13.8242 16.7654ZM15.0988 15.4908C14.8192 16.0395 14.373 16.4858 13.8242 16.7654L14.9591 18.9929C15.9784 18.4736 16.807 17.645 17.3263 16.6257L15.0988 15.4908ZM15.4167 11.6666C15.4167 12.854 15.4157 13.6694 15.3641 14.3015C15.3136 14.919 15.2211 15.2507 15.0988 15.4908L17.3263 16.6257C17.6581 15.9745 17.7927 15.2772 17.8558 14.505C17.9177 13.7475 17.9167 12.8128 17.9167 11.6666H15.4167ZM15.4167 8.33329V11.6666H17.9167V8.33329H15.4167ZM15.4162 7.64494C15.4167 7.86168 15.4167 8.09026 15.4167 8.33329H17.9167C17.9167 8.0909 17.9167 7.8593 17.9162 7.6391L15.4162 7.64494ZM16.8293 5.04046L13.2929 1.50406L11.5251 3.27184L15.0615 6.80824L16.8293 5.04046ZM17.9162 7.6391C17.9139 6.65383 17.513 5.72419 16.8293 5.04046L15.0615 6.80824C15.2909 7.03759 15.4155 7.33892 15.4162 7.64494L17.9162 7.6391ZM10.6884 2.91714C10.9945 2.91785 11.2957 3.04247 11.5251 3.27184L13.2929 1.50406C12.6091 0.820339 11.6795 0.419446 10.6942 0.417141L10.6884 2.91714Z" fill="#FECC00"/>
<path d="M11.25 2.08337V4.58337C11.25 5.96408 12.3692 7.08337 13.75 7.08337H15.8333" stroke="#FECC00" stroke-width="1.5"/>
</g>
</svg>
