<svg width="125" height="171" viewBox="0 0 125 171" fill="none" xmlns="http://www.w3.org/2000/svg">
<g opacity="0.2">
<path d="M105.896 95.5462C100.438 106.896 93.0417 118.204 85.4792 128.357C78.3052 137.929 70.6344 147.098 62.5 155.824C54.3655 147.098 46.6946 137.929 39.5208 128.357C31.9583 118.204 24.5625 106.896 19.1042 95.5462C13.5833 84.0786 10.4167 73.3376 10.4167 64.125C10.4167 49.9525 15.904 36.3605 25.6715 26.339C35.439 16.3175 48.6866 10.6875 62.5 10.6875C76.3134 10.6875 89.561 16.3175 99.3285 26.339C109.096 36.3605 114.583 49.9525 114.583 64.125C114.583 73.3376 111.406 84.0786 105.896 95.5462ZM62.5 171C62.5 171 125 110.231 125 64.125C125 47.118 118.415 30.8075 106.694 18.7818C94.9732 6.75601 79.076 0 62.5 0C45.924 0 30.0268 6.75601 18.3058 18.7818C6.5848 30.8075 2.47002e-07 47.118 0 64.125C0 110.231 62.5 171 62.5 171Z" fill="url(#paint0_linear_8464_37925)"/>
<path d="M62.5001 85.5C56.9748 85.5 51.6757 83.248 47.7687 79.2394C43.8617 75.2308 41.6668 69.794 41.6668 64.125C41.6668 58.456 43.8617 53.0192 47.7687 49.0106C51.6757 45.002 56.9748 42.75 62.5001 42.75C68.0255 42.75 73.3245 45.002 77.2315 49.0106C81.1385 53.0192 83.3335 58.456 83.3335 64.125C83.3335 69.794 81.1385 75.2308 77.2315 79.2394C73.3245 83.248 68.0255 85.5 62.5001 85.5ZM62.5001 96.1875C70.7881 96.1875 78.7367 92.8095 84.5972 86.7966C90.4577 80.7837 93.7501 72.6285 93.7501 64.125C93.7501 55.6215 90.4577 47.4663 84.5972 41.4534C78.7367 35.4405 70.7881 32.0625 62.5001 32.0625C54.2121 32.0625 46.2635 35.4405 40.403 41.4534C34.5425 47.4663 31.2501 55.6215 31.2501 64.125C31.2501 72.6285 34.5425 80.7837 40.403 86.7966C46.2635 92.8095 54.2121 96.1875 62.5001 96.1875Z" fill="url(#paint1_linear_8464_37925)"/>
</g>
<defs>
<linearGradient id="paint0_linear_8464_37925" x1="62.5" y1="0" x2="62.5" y2="171" gradientUnits="userSpaceOnUse">
<stop stop-color="#24489C"/>
<stop offset="0.859375" stop-color="#24489C" stop-opacity="0"/>
<stop offset="1" stop-color="#24489C" stop-opacity="0"/>
</linearGradient>
<linearGradient id="paint1_linear_8464_37925" x1="62.5001" y1="32.0625" x2="62.5001" y2="96.1875" gradientUnits="userSpaceOnUse">
<stop stop-color="#24489C"/>
<stop offset="0.859375" stop-color="#24489C" stop-opacity="0"/>
<stop offset="1" stop-color="#24489C" stop-opacity="0"/>
</linearGradient>
</defs>
</svg>
