<svg width="90" height="90" viewBox="0 0 90 90" fill="none" xmlns="http://www.w3.org/2000/svg">
<rect width="90" height="90" rx="20" fill="#FECC00"/>
<path d="M49.4548 63.777C49.4548 66.1506 47.5586 68.0748 45.2195 68.0748C42.8803 68.0748 40.9841 66.1506 40.9841 63.777C40.9841 61.4034 42.8803 59.4793 45.2195 59.4793C47.5586 59.4793 49.4548 61.4034 49.4548 63.777Z" fill="#24489C"/>
<path d="M57.9255 13.6364C61.824 13.6364 64.9844 16.8433 64.9844 20.7993V69.5074C64.9844 73.4634 61.824 76.6703 57.9255 76.6703H32.5135C28.6149 76.6703 25.4546 73.4634 25.4546 69.5074V20.7993C25.4546 16.8433 28.6149 13.6364 32.5135 13.6364H57.9255ZM36.7488 17.9341H32.5135C30.954 17.9341 29.6899 19.2169 29.6899 20.7993V69.5074C29.6899 71.0898 30.954 72.3726 32.5135 72.3726H57.9255C59.4849 72.3726 60.749 71.0898 60.749 69.5074V20.7993C60.749 19.2169 59.4849 17.9341 57.9255 17.9341H53.6901V19.3667C53.6901 20.9491 52.426 22.2319 50.8666 22.2319H39.5723C38.0129 22.2319 36.7488 20.9491 36.7488 19.3667V17.9341Z" fill="#24489C"/>
<path d="M46.0307 36.7199C45.9334 36.5228 45.7326 36.398 45.5128 36.398C45.293 36.398 45.0922 36.5228 44.995 36.7199L43.4322 39.8865L39.9376 40.3943C39.7201 40.4259 39.5394 40.5783 39.4714 40.7873C39.4035 40.9964 39.4601 41.2259 39.6176 41.3793L42.1462 43.8442L41.5493 47.3246C41.5121 47.5412 41.6012 47.7602 41.779 47.8894C41.9569 48.0186 42.1926 48.0356 42.3872 47.9334L45.5128 46.2901L48.6384 47.9334C48.833 48.0356 49.0688 48.0186 49.2466 47.8894C49.4244 47.7602 49.5135 47.5412 49.4763 47.3246L48.8794 43.8442L51.4081 41.3793C51.5655 41.2259 51.6221 40.9964 51.5542 40.7873C51.4863 40.5783 51.3055 40.4259 51.088 40.3943L47.5935 39.8865L46.0307 36.7199Z" fill="#24489C"/>
</svg>
