<svg width="90" height="90" viewBox="0 0 90 90" fill="none" xmlns="http://www.w3.org/2000/svg">
<rect width="90" height="90" rx="20" fill="#FFCC01"/>
<path d="M61.6007 18.9562C60.3875 17.8778 58.5441 17.932 57.3963 19.0797L54.6095 21.8665L51.8723 19.1292C50.6751 17.932 48.7341 17.932 47.5369 19.1292L44.7996 21.8665L42.0624 19.1292C40.8652 17.932 38.9241 17.932 37.7269 19.1292L34.9897 21.8665L32.2029 19.0797C31.0552 17.932 29.2117 17.8778 27.9985 18.9562L23.7562 22.7271C23.1017 23.3089 22.7273 24.1428 22.7273 25.0184V65.6093C22.7273 66.4849 23.1017 67.3188 23.7562 67.9006L27.9985 71.6715C29.2117 72.7499 31.0552 72.6957 32.2029 71.548L34.9897 68.7612L37.7269 71.4985C38.9241 72.6957 40.8652 72.6957 42.0624 71.4985L44.7996 68.7612L47.5369 71.4985C48.7341 72.6957 50.6751 72.6957 51.8723 71.4985L54.6096 68.7612L57.3963 71.548C58.5441 72.6957 60.3875 72.7499 61.6007 71.6715L65.843 67.9006C66.4975 67.3188 66.872 66.4849 66.872 65.6093V25.0184C66.872 24.1428 66.4975 23.3089 65.843 22.7271L61.6007 18.9562ZM56.7773 24.9013L59.5888 22.0898L63.1932 25.2937V65.334L59.5888 68.5379L56.7773 65.7264C55.5801 64.5292 53.639 64.5292 52.4418 65.7264L49.7046 68.4637L46.9673 65.7264C45.7701 64.5292 43.8291 64.5292 42.6319 65.7264L39.8947 68.4637L37.1574 65.7264C35.9602 64.5292 34.0192 64.5292 32.822 65.7264L30.0105 68.5379L26.406 65.334V25.2937L30.0105 22.0898L32.822 24.9013C34.0192 26.0985 35.9602 26.0985 37.1574 24.9013L39.8946 22.164L42.6319 24.9013C43.8291 26.0985 45.7701 26.0985 46.9673 24.9013L49.7046 22.164L52.4418 24.9013C53.639 26.0985 55.5801 26.0985 56.7773 24.9013Z" fill="#24489C"/>
<path d="M45.4832 39.0323C45.3823 38.8279 45.1741 38.6984 44.9461 38.6984C44.7181 38.6984 44.5099 38.8279 44.4089 39.0323L42.7879 42.3169L39.1631 42.8436C38.9375 42.8764 38.7501 43.0344 38.6796 43.2513C38.6091 43.4681 38.6679 43.7062 38.8312 43.8653L41.4541 46.422L40.8349 50.0321C40.7963 50.2569 40.8887 50.484 41.0732 50.618C41.2576 50.752 41.5022 50.7697 41.704 50.6636L44.9461 48.9591L48.1882 50.6636C48.39 50.7697 48.6345 50.752 48.819 50.618C49.0035 50.484 49.0958 50.2569 49.0573 50.0321L48.4381 46.422L51.061 43.8653C51.2243 43.7062 51.283 43.4681 51.2126 43.2513C51.1421 43.0344 50.9547 42.8764 50.729 42.8436L47.1043 42.3169L45.4832 39.0323Z" fill="#24489C"/>
</svg>
